<svg width="292" height="307" viewBox="0 0 292 307" fill="none" xmlns="http://www.w3.org/2000/svg">
<g id="svga-group-wrapper">
<g id="svga-group-humanwrap-move">
<g id="svga-group-humanwrap">
<g id="svga-group-hair-back-move">
<g id="svga-group-hair-back">
<path id="SvgjsPath4772" d="M57.7204 143.452C51.289 130.034 52.2366 124.489 53.9499 114C50.9977 116.82 49.2304 120.604 44.4128 124.103C44.7865 121.59 50.4778 107.013 50.9295 105.943C45.4684 110.333 42.4494 111.269 39.8354 112.173C41.5999 109.851 42.7705 107.152 45.3761 102.232H61.7552C62.0834 107.597 63.2697 114.223 65.0398 120.043C64.1036 120.591 61.643 124.028 57.7204 143.452ZM229.414 104.272C229.347 109.083 227.507 118.099 225.282 124.157C226.426 124.835 227.759 125.627 227.469 125.422C235.923 131.409 237.283 132.443 238.144 142.195C244.287 130.504 239.076 115.496 238.768 104.273H229.414V104.272ZM238.779 104.272H245.088C244.261 106.74 242.338 110.272 240.227 112.584C239.434 109.871 238.998 106.01 238.779 104.272Z" fill="#1B141C"/>
<path id="SvgjsPath4773" d="M52.252 104.317C47.423 115.507 47.1389 118.301 44.5816 123.79C48.6306 120.848 51.6666 115.042 54.3844 113.49C53.9156 117.274 51.6851 124.918 54.1713 133.288C55.109 136.458 56.3024 139.528 57.7387 142.523C58.1081 138.062 58.861 125.068 63.5337 121.121C60.3229 128.576 58.4902 138.325 58.4902 145.932C49.3836 131.935 51.4734 124.253 53.6172 114.492C50.2928 117.838 49.3552 122.023 42.9763 125.431C45.1499 121.384 45.8475 116.572 50.3496 106.71C46.6132 110.006 44.0986 111.322 39.112 112.625C40.9844 109.892 42.6324 106.427 44.0801 103.61H45.6173C44.1981 106.309 42.7319 109.031 40.9447 111.384C44.6811 110.094 48.2598 107.688 52.252 104.317ZM225.281 124.157C225.588 124.344 227.662 125.6 228.594 126.322C232.481 129.332 237.493 132.079 237.144 145.469C243.598 135.635 242.761 121.079 240.751 113.152C243.616 110.435 245.551 107.085 246.539 104.263L244.83 104.249C244.003 106.717 242.478 109.688 240.367 112C239.572 109.287 239.138 106.262 238.92 104.524L238.766 104.273C239.075 115.496 243.192 128.818 238.421 141.259C237.56 131.506 234.997 129.729 225.281 124.157Z" fill="black"/>
</g>
</g>
<g id="svga-group-humanbody-single">
<path id="SvgjsPath2914" d="M281.279 261.131C278.159 255.183 269.636 246.371 260.167 243.936C248.462 240.925 222.04 237.285 212.243 235.261C204.389 233.637 188.571 221.109 183.028 216.903C182.033 216.151 181.219 214.599 181.199 213.445C181.002 199.831 187.159 163.668 187.159 163.668H145.72H104.283C104.283 163.668 110.44 199.83 110.24 213.445C110.224 214.599 109.406 216.151 108.414 216.903C102.871 221.109 87.0529 233.637 79.1993 235.261C69.4008 237.285 42.9788 241.049 31.2751 244.06C21.8034 246.493 13.2835 255.182 10.1637 261.129C4.89573 271.164 3.6512 289.323 3.6512 304.987H145.72H287.79C287.79 289.325 286.544 271.165 281.279 261.131Z" fill="#F0C7B1"/>
<path id="SvgjsPath2915" d="M229.764 241.432C264.346 245.871 278.9 252.344 283.458 304.989H287.791C287.791 289.326 286.545 271.167 281.28 261.132C278.16 255.185 269.637 246.372 260.168 243.937C248.463 240.926 222.041 237.286 212.244 235.262C204.39 233.638 186.328 220.139 181.496 214.774C186.269 220.669 199.668 234.329 211.407 237.906C217.023 239.618 221.7 240.397 229.764 241.432ZM80.0372 237.906C91.7764 234.33 105.174 220.669 109.948 214.774C105.118 220.138 87.0554 233.638 79.2004 235.262C69.4033 237.286 42.9813 241.05 31.2762 244.061C21.8073 246.495 13.2846 255.184 10.1647 261.131C4.89965 271.165 3.6537 289.325 3.6537 304.988H7.98681C12.516 252.68 27.1306 245.864 61.6804 241.431C69.7429 240.397 74.4212 239.618 80.0372 237.906Z" fill="#FFE4D6"/>
<path id="SvgjsPath2916" d="M139.534 258.426C139.534 258.426 132.326 256.41 129.471 255.445C114.627 250.422 66.3999 247.166 66.3999 247.166C66.3999 247.166 117.195 248.944 128.405 250.648C127.754 244.675 124.118 225.582 124.118 225.582C124.118 225.582 131.433 246.652 133.224 251.968C134.181 254.81 139.534 258.426 139.534 258.426ZM154.876 256.745C154.75 256.836 154.605 256.955 154.447 257.08C154.608 256.974 154.753 256.862 154.876 256.745ZM139.534 258.426C139.534 258.426 143.644 262.175 145.71 262.223C148.423 262.287 152.569 258.59 154.449 257.08C152.651 258.28 148.54 258.823 146.905 258.88C145.015 258.944 139.534 258.426 139.534 258.426ZM169.394 249.004C167.199 249.315 163.163 249.993 163.163 249.993L166.412 231.335C165.494 235.183 160.056 251.648 154.876 256.745C157.59 254.72 163.625 253.749 166.702 253.356C181.244 251.497 181.239 251.498 225.038 247.166C225.038 247.166 183.738 246.972 169.394 249.004Z" fill="#E1AC8F"/>
<path id="SvgjsPath2917" d="M281.279 261.131C278.159 255.183 269.636 246.371 260.167 243.936C248.462 240.925 222.04 237.285 212.243 235.261C204.389 233.637 188.571 221.109 183.028 216.903C182.033 216.151 181.219 214.599 181.199 213.445C181.002 199.831 187.159 163.668 187.159 163.668H145.72H104.283C104.283 163.668 110.44 199.83 110.24 213.445C110.224 214.599 109.406 216.151 108.414 216.903C102.871 221.109 87.0529 233.637 79.1993 235.261C69.4008 237.285 42.9788 241.049 31.2751 244.06C21.8034 246.493 13.2835 255.182 10.1637 261.129C4.89573 271.164 3.6512 289.323 3.6512 304.987H145.72H287.79C287.79 289.325 286.544 271.165 281.279 261.131Z" stroke="#C27B55" stroke-width="3.75"/>
</g>
<g id="svga-group-chinshadow-single">
<path id="SvgjsPath5012" d="M145.751 226.155C157.376 226.155 169.719 219.961 180.13 212.778C180.128 204.38 182.191 188.838 183.898 177.435C162.044 174.62 129.335 174.58 107.513 177.245C109.195 188.472 111.242 203.818 111.307 212.356C121.738 219.765 134.102 226.155 145.751 226.155Z" fill="url(#paint0_linear)"/>
</g>
<g id="svga-group-clothes-single">
<path id="SvgjsPath4892" d="M162.493 306.52C135.308 306.52 103.598 306.427 65.5548 306.233L31.9143 306.073C11.6013 305.975 10.4036 305.955 7.92308 305.955L0.963119 305.964C-5.53086 253.491 21.4353 239.714 63.1354 234.905C74.2012 233.53 85.0836 231.024 93.622 226.168C116.818 254.04 185.698 248.175 197.479 225.38C199.454 226.044 201.086 226.903 203.129 227.553C209.758 231.855 218.859 234.866 228.173 235.321C265.122 237.126 291.278 251.606 290.764 303.788C290.768 303.995 290.77 305.261 290.746 305.655C272.969 305.655 266.301 305.807 252.339 305.984C233.4 306.222 209.827 306.519 162.51 306.519C162.503 306.52 162.499 306.52 162.493 306.52Z" fill="#386E77"/>
<path id="SvgjsPath4893" d="M289.288 304.815C288.706 295.561 283.514 269.656 274.57 257.773C256.837 234.209 214.531 242.478 204.768 233.097C197.685 245.827 169.287 253.891 159.883 255.075C187.133 247.106 198.578 241.343 203.1 227.671C212.2 238.109 261.454 230.141 280.836 258.159C286.512 266.363 291.909 292.476 289.288 304.815ZM82.9412 233.375C84.869 232.98 85.8309 231.81 87.7445 231.352L85.7186 228.983C72.8628 237.819 24.7582 232.297 8.26396 259.102C3.06565 267.548 -0.440612 287.656 2.30842 304.762C3.07134 294.256 3.44356 271.789 12.3882 259.905C28.4761 238.527 57.8134 244.175 80.0401 235.125C89.9608 245.902 105.453 251.2 121.217 253.391C101.44 248.841 90.1 241.159 82.9412 233.375Z" fill="#4D7E86"/>
<path id="SvgjsPath4894" d="M195.885 227.881C188.025 242.309 128.615 259.112 95.1149 228.983C93.0322 229.762 86.801 231.629 86.801 231.629C111.203 260.934 182.713 261.119 201.748 231.486C201.664 231.458 197.82 228.749 195.885 227.881Z" fill="#265E68"/>
<path id="SvgjsPath4895" d="M197.518 225.073C184.146 248.658 114.554 251.995 93.791 225.865C86.2088 227.842 78.9178 232.056 71.5771 233.11C27.6493 238.88 -4.82485 241.78 0.923262 305.959C15.0449 305.959 -8.46893 305.877 65.6656 306.228C241.249 307.118 235.526 305.65 290.996 305.65C291.037 305.475 291.017 303.831 291.026 303.651C294.003 232.932 247.194 237.107 215.558 232.232C211.092 231.332 206.94 228.757 203.291 227.288C201.275 226.475 199.561 225.744 197.518 225.073ZM93.2881 226.655C111.72 255.967 184.523 250.087 198.58 226.782C200.285 227.413 200.721 227.664 202.697 228.282C188.138 255.209 116.117 263.79 86.6591 229.739C86.8665 229.688 91.211 227.342 93.2881 226.655ZM2.56416 304.989C-0.875333 271.869 5.11714 244.787 49.1344 238.144C63.7334 235.768 72.6568 235.685 85.1972 230.883C109.012 265.224 187.626 259.902 203.964 229.248C206.311 231.014 209.971 233.045 214.484 233.991C240.196 239.378 292.392 232.871 289.636 304.988C212.838 304.108 149.179 302.05 2.56416 304.989Z" fill="#0C4049"/>
</g>
<g id="svga-group-head">
<g id="svga-group-ears-left-move">
<g id="svga-group-ears-left">
<path id="SvgjsPath5200" d="M68.5363 116.483C66.4266 113.398 59.5476 104.956 54.2853 106.14C50.0062 107.108 50.0616 112.369 49.7306 115.482C49.2475 120.048 49.0714 128.003 50.4764 131.231C51.8275 134.33 56.1024 140.318 58.7562 142.602C62.0224 145.403 67.2378 154.329 67.8799 155.255C68.89 156.718 70.9159 158.813 74.0244 158.648C78.3874 158.416 82.1565 154.78 82.4988 153.028C84.3472 143.517 74.0273 124.51 68.5363 116.483Z" fill="#F0C7B1" stroke="#C27B55" stroke-width="3.75"/>
<path id="SvgjsPath5201" d="M66.4459 135.276C66.2427 134.57 66.4558 133.38 66.6646 132.232C66.8536 131.186 67.0312 130.197 66.9232 129.498C66.5126 126.879 64.2026 121.904 62.6952 119.208C60.9577 116.105 58.1504 112.197 54.6271 111.189C53.1723 110.772 52.2134 111.271 51.6593 111.776C51.2501 112.147 51.1578 112.584 51.2913 112.637C51.4263 112.688 51.7275 112.326 52.1679 111.986C52.5288 111.708 51.4462 111.936 52.1679 111.986C51.8767 113.289 50.939 119.883 51.5854 124.696C52.094 128.483 53.0771 131.311 53.3798 131.735C53.4238 132.181 53.4977 132.618 53.6071 133.042C55.0306 138.568 64.2878 145.794 66.4416 147.853C66.8394 148.233 67.2571 148.458 67.3594 148.365C67.4616 148.273 67.2159 147.898 66.8209 147.516C64.6927 145.471 55.4966 138.267 54.1214 132.936C52.6623 127.28 59.6791 118.893 60.7972 117.119C61.3669 117.952 61.8513 118.752 62.2236 119.418C62.5176 119.941 62.8401 120.553 63.1754 121.216C62.5176 122.141 55.9043 128.894 57.5864 134.3C58.2087 136.293 63.0163 138.863 64.876 139.566C65.8989 139.955 66.2825 140.534 66.7286 141.203C67.2457 141.985 66.7755 143.996 68.476 144.635C68.8227 144.765 69.1352 144.818 69.4123 144.818C69.8925 144.818 70.2562 144.655 70.5247 144.462C70.5531 144.802 70.5517 145.238 70.5375 145.641C70.5204 146.165 70.6042 146.404 70.7477 146.414C70.894 146.426 71.0461 146.196 71.0645 145.679C71.0887 145.04 71.0844 144.249 70.9551 143.869C70.573 142.755 69.4094 141.496 68.1748 140.164C66.9616 138.855 66.7613 136.369 66.4459 135.276ZM53.3315 130.378C49.9957 121.703 55.1542 113.801 55.9029 112.61C57.3406 113.11 59.5427 115.358 60.479 116.664C59.797 117.708 53.4707 124.542 53.3315 130.378ZM68.6792 144.202C67.1392 143.623 67.6762 141.715 67.1789 140.964C66.7272 140.284 66.2612 139.583 65.0777 139.134C64.822 139.036 64.5393 138.888 64.2495 138.718C60.4392 131.106 64.6657 127.779 65.7256 127.098C66.0509 128.028 66.2924 128.881 66.4018 129.567C66.4984 130.193 66.318 131.193 66.1447 132.158C65.9273 133.355 65.7043 134.594 65.9358 135.396C66.2825 136.59 66.5197 139.118 67.7699 140.469C68.8795 141.667 70.0189 142.902 70.4082 143.91C70.2405 144.11 69.7134 144.591 68.6792 144.202Z" fill="#C27B55"/>
</g>
</g>
<g id="svga-group-ears-right-move">
<g id="svga-group-ears-right">
<path id="SvgjsPath5202" d="M222.531 116.483C224.642 113.398 231.521 104.956 236.782 106.14C241.061 107.108 241.005 112.369 241.338 115.482C241.821 120.048 241.996 128.003 240.592 131.231C239.241 134.33 234.965 140.318 232.312 142.602C229.046 145.403 223.829 154.329 223.189 155.255C222.178 156.718 220.153 158.813 217.043 158.648C212.681 158.416 208.912 154.78 208.568 153.028C206.721 143.517 217.043 124.51 222.531 116.483Z" fill="#F0C7B1" stroke="#C27B55" stroke-width="3.75"/>
<path id="SvgjsPath5203" d="M222.894 140.166C221.66 141.498 220.496 142.757 220.114 143.871C219.983 144.252 219.981 145.043 220.003 145.68C220.023 146.198 220.175 146.427 220.323 146.416C220.468 146.406 220.55 146.167 220.533 145.643C220.519 145.239 220.516 144.803 220.545 144.464C220.813 144.657 221.177 144.82 221.657 144.82C221.934 144.82 222.248 144.767 222.595 144.637C224.292 143.996 223.824 141.985 224.341 141.204C224.787 140.535 225.17 139.955 226.195 139.568C228.054 138.865 232.862 136.296 233.484 134.301C235.166 128.895 228.553 122.141 227.895 121.218C228.228 120.555 228.553 119.942 228.844 119.42C229.219 118.753 229.702 117.952 230.273 117.12C231.392 118.895 238.407 127.28 236.949 132.938C235.573 138.268 226.378 145.472 224.25 147.517C223.853 147.9 223.606 148.274 223.708 148.367C223.814 148.46 224.23 148.234 224.626 147.854C226.78 145.796 236.036 138.569 237.459 133.043C237.57 132.62 237.645 132.182 237.689 131.736C237.989 131.314 238.974 128.486 239.482 124.698C240.129 119.885 239.191 113.291 238.9 111.988C239.622 111.938 238.539 111.71 238.9 111.988C239.342 112.327 239.643 112.689 239.776 112.638C239.91 112.585 239.818 112.149 239.41 111.777C238.854 111.272 237.895 110.773 236.441 111.191C232.917 112.198 230.109 116.107 228.371 119.209C226.864 121.906 224.555 126.881 224.145 129.499C224.037 130.199 224.214 131.187 224.403 132.234C224.611 133.381 224.825 134.572 224.622 135.277C224.307 136.369 224.108 138.855 222.894 140.166ZM230.589 116.664C231.527 115.358 233.727 113.112 235.165 112.61C235.914 113.801 241.072 121.703 237.738 130.378C237.599 124.542 231.272 117.708 230.589 116.664ZM220.661 143.907C221.049 142.9 222.19 141.664 223.299 140.466C224.548 139.116 224.787 136.588 225.133 135.394C225.364 134.592 225.142 133.353 224.926 132.156C224.751 131.191 224.571 130.191 224.667 129.565C224.775 128.879 225.017 128.026 225.342 127.096C226.402 127.776 230.629 131.105 226.818 138.716C226.53 138.886 226.247 139.034 225.989 139.132C224.807 139.58 224.341 140.282 223.887 140.961C223.39 141.713 223.929 143.622 222.389 144.199C221.354 144.591 220.827 144.11 220.661 143.907Z" fill="#C27B55"/>
</g>
</g>
<g id="svga-group-faceshape-wrap">
<g id="svga-group-faceshape-single">
<path id="SvgjsPath5009" d="M229.235 108.543H229.228C229.214 108.601 211.9 159.004 206.669 174.227C205.653 177.181 203.926 179.929 201.617 182.229C192.56 191.244 167.85 213.627 145.75 213.627C123.233 213.627 98.0274 189.762 89.3371 180.779C87.2884 178.664 85.7754 176.227 84.8306 173.555C79.7062 159.081 61.9206 108.836 61.905 108.779H61.9036C60.0595 102.523 59.0707 95.9584 59.0593 89.1881C58.9855 46.5534 97.6367 11.9485 145.397 11.8821C193.162 11.8157 231.936 46.3116 232.008 88.945C232.021 95.7153 231.058 102.283 229.235 108.543Z" fill="#F0C7B1"/>
<path id="SvgjsPath5010" d="M191.421 23.6517C211.751 37.6047 225.05 60.5635 225.09 86.5661C225.102 93.3377 224.216 99.9051 222.538 106.165H222.532C222.52 106.223 206.588 156.627 201.779 171.848C200.844 174.803 199.256 177.551 197.132 179.849C188.8 188.865 166.067 211.25 145.734 211.25C125.018 211.25 101.829 187.382 93.835 178.4C91.9497 176.284 90.5589 173.848 89.6894 171.178C84.9756 156.702 68.6121 106.457 68.5978 106.4H68.5964C66.9001 100.144 65.9909 93.5796 65.9795 86.8092C65.9383 60.7114 79.2601 37.6398 99.6683 23.6392C75.2424 37.309 59.011 61.5547 59.0593 89.1876C59.0707 95.9579 60.0595 102.524 61.9036 108.778H61.905C61.9192 108.836 79.7062 159.08 84.8306 173.555C85.7768 176.226 87.2884 178.662 89.3371 180.779C98.026 189.762 123.232 213.627 145.75 213.627C167.851 213.627 192.56 191.244 201.617 182.228C203.926 179.929 205.653 177.182 206.669 174.226C211.9 159.004 229.214 108.6 229.228 108.543H229.235C231.058 102.281 232.021 95.7148 232.008 88.9432C231.961 61.4056 215.756 37.2789 191.421 23.6517Z" fill="#E8B9A0"/>
<path id="SvgjsPath5011" d="M229.235 108.543H229.228C229.214 108.601 211.9 159.004 206.669 174.227C205.653 177.181 203.926 179.929 201.617 182.229C192.56 191.244 167.85 213.627 145.75 213.627C123.233 213.627 98.0274 189.762 89.3371 180.779C87.2884 178.664 85.7754 176.227 84.8306 173.555C79.7062 159.081 61.9206 108.836 61.905 108.779H61.9036C60.0595 102.523 59.0707 95.9584 59.0593 89.1881C58.9855 46.5534 97.6367 11.9485 145.397 11.8821C193.162 11.8157 231.936 46.3116 232.008 88.945C232.021 95.7153 231.058 102.283 229.235 108.543Z" stroke="#C27B55" stroke-width="3.75"/>
</g>
</g>
<g id="svga-group-mouth-single-move">
<g id="svga-group-mouth-single">
<path id="SvgjsPath5116" d="M145.697 191.449C141.094 191.449 138.944 187.94 138.944 187.94C138.944 187.94 145.759 188.917 152.127 187.856C152.127 187.856 149.744 191.449 145.697 191.449Z" fill="url(#paint1_linear)"/>
<g id="Grouped Mouth">
<path id="SvgjsPath5120" d="M145.535 184.595C133.499 184.595 128.136 181.327 123.49 177.077H167.582C163.724 181.428 158.094 184.595 145.535 184.595Z" fill="white"/>
<path id="SvgjsPath5121" d="M145.535 184.595C133.499 184.595 128.136 181.327 123.49 177.077H167.582C163.724 181.428 158.094 184.595 145.535 184.595Z" stroke="#C27B55" stroke-width="1.875"/>
</g>
</g>
</g>
<g id="svga-group-eyes-left-move">
<g id="svga-group-eyes-left">
<g id="svga-group-eyesback-left">
<path id="SvgjsPath4692" d="M115.691 122.606C109.568 123.552 104.814 123.495 100.506 122.35C96.0639 121.168 90.2945 116.304 88.2941 111.705C93.572 111.358 104.418 110.957 109.448 111.512C116.108 112.246 122.908 114.527 126.93 118.073C126.907 118.442 126.855 118.804 126.806 119.166C123.559 121.104 118.963 122.099 115.691 122.606Z" fill="url(#paint2_radial)"/>
</g>
<g id="svga-group-eyesiriswrapper-left">
<g id="svga-group-eyesiriscontrol-left">
<g id="svga-group-eyesiris-left">
<path id="SvgjsPath2947" d="M117.662 116.366C117.662 120.518 113.844 123.885 109.138 123.885C104.431 123.885 100.613 120.518 100.613 116.366C100.613 112.214 104.431 108.848 109.138 108.848C113.844 108.847 117.662 112.214 117.662 116.366Z" fill="#4E60A3"/>
<path id="SvgjsPath2948" opacity="0.7" d="M108.193 109.013C108.16 109.017 108.126 109.02 108.092 109.024C108.133 109.193 108.173 109.364 108.213 109.533C108.204 109.361 108.2 109.186 108.193 109.013ZM108.211 109.532C108.311 112.003 108.474 114.204 108.946 115C109.194 114.128 108.771 111.955 108.211 109.532ZM108.947 115.001C108.886 115.211 108.794 115.353 108.652 115.401C108.509 115.449 108.33 115.394 108.129 115.272C108.187 115.481 108.181 115.644 108.078 115.746C107.975 115.847 107.792 115.872 107.548 115.843C107.708 116.006 107.791 116.155 107.755 116.286C107.717 116.416 107.565 116.514 107.339 116.589C107.565 116.668 107.717 116.766 107.752 116.896C107.788 117.026 107.705 117.175 107.546 117.337C107.788 117.311 107.974 117.338 108.073 117.44C108.174 117.541 108.18 117.705 108.123 117.915C108.323 117.793 108.5 117.741 108.642 117.789C108.785 117.837 108.877 117.98 108.934 118.19C109.049 118 109.177 117.878 109.332 117.865C109.48 117.847 109.639 117.939 109.799 118.1C109.801 117.885 109.852 117.726 109.98 117.649C110.105 117.573 110.291 117.588 110.518 117.665C110.407 117.475 110.369 117.313 110.44 117.193C110.511 117.074 110.686 117.01 110.929 116.985C110.729 116.861 110.606 116.734 110.609 116.599C110.609 116.464 110.729 116.337 110.932 116.216C110.69 116.189 110.518 116.125 110.446 116.006C110.376 115.887 110.415 115.724 110.528 115.534C110.298 115.609 110.113 115.624 109.988 115.548C109.862 115.471 109.811 115.312 109.811 115.097C109.652 115.257 109.493 115.346 109.342 115.328C109.189 115.311 109.059 115.193 108.947 115.001ZM109.809 115.095C110.49 114.425 111.26 112.327 112.04 109.953C110.827 112.179 109.811 114.196 109.809 115.095ZM112.038 109.953C112.124 109.8 112.21 109.644 112.291 109.489C112.261 109.48 112.232 109.468 112.202 109.456C112.148 109.623 112.094 109.79 112.038 109.953ZM110.528 115.534C111.483 115.218 113.272 113.676 115.212 111.894C112.966 113.367 111.003 114.737 110.528 115.534ZM115.212 111.894C115.354 111.8 115.501 111.706 115.646 111.612C115.626 111.589 115.603 111.57 115.586 111.55C115.462 111.663 115.339 111.78 115.212 111.894ZM110.929 116.216C111.942 116.326 114.339 115.693 116.998 114.911C114.231 115.297 111.773 115.704 110.929 116.216ZM116.998 114.912C117.154 114.892 117.318 114.87 117.477 114.847C117.471 114.823 117.464 114.8 117.457 114.776C117.305 114.821 117.149 114.867 116.998 114.912ZM110.927 116.984C111.766 117.5 114.221 117.92 116.982 118.316C114.333 117.523 111.942 116.877 110.927 116.984ZM116.984 118.316C117.119 118.357 117.255 118.4 117.389 118.439C117.396 118.417 117.402 118.397 117.406 118.376C117.268 118.357 117.125 118.337 116.984 118.316ZM110.518 117.664C110.991 118.462 112.945 119.842 115.181 121.328C113.25 119.536 111.474 117.985 110.518 117.664ZM115.182 121.326C115.266 121.403 115.353 121.483 115.437 121.562C115.451 121.547 115.464 121.536 115.479 121.522C115.38 121.457 115.278 121.391 115.182 121.326ZM109.801 118.099C109.797 119 110.8 121.02 111.999 123.253C111.233 120.876 110.479 118.773 109.801 118.099ZM111.999 123.254C112.029 123.348 112.06 123.445 112.088 123.541C112.109 123.534 112.124 123.529 112.144 123.523C112.097 123.433 112.047 123.341 111.999 123.254ZM108.936 118.189C108.458 118.987 108.281 121.184 108.166 123.654C108.74 121.235 109.179 119.064 108.936 118.189ZM108.166 123.654C108.141 123.748 108.122 123.843 108.099 123.94C108.119 123.943 108.134 123.943 108.154 123.946C108.157 123.849 108.163 123.749 108.166 123.654ZM108.124 117.913C107.278 118.423 105.964 120.299 104.561 122.437C106.343 120.532 107.877 118.788 108.124 117.913ZM104.561 122.437C104.486 122.516 104.408 122.6 104.331 122.679C104.35 122.689 104.365 122.696 104.385 122.709C104.442 122.619 104.503 122.527 104.561 122.437ZM107.549 117.338C106.532 117.442 104.379 118.564 102.011 119.881C104.594 118.926 106.867 118.012 107.549 117.338ZM102.01 119.883C101.888 119.928 101.763 119.974 101.636 120.021C101.645 120.037 101.657 120.055 101.669 120.071C101.784 120.01 101.898 119.946 102.01 119.883ZM107.34 116.59C106.387 116.268 103.889 116.38 101.096 116.576C103.887 116.787 106.384 116.909 107.34 116.59ZM101.096 116.576C100.944 116.564 100.788 116.551 100.637 116.54C100.637 116.564 100.635 116.588 100.637 116.61C100.792 116.598 100.947 116.586 101.096 116.576ZM107.549 115.846C106.877 115.17 104.61 114.246 102.035 113.276C104.392 114.604 106.538 115.737 107.549 115.846ZM102.035 113.276C101.888 113.192 101.738 113.108 101.588 113.024C101.575 113.048 101.561 113.072 101.547 113.093C101.711 113.154 101.876 113.214 102.035 113.276ZM108.13 115.272C107.89 114.397 106.367 112.648 104.6 110.732C105.986 112.877 107.289 114.758 108.13 115.272ZM104.6 110.732C104.505 110.588 104.412 110.441 104.317 110.295C104.29 110.311 104.262 110.327 104.237 110.344C104.357 110.473 104.482 110.603 104.6 110.732Z" fill="url(#paint3_radial)"/>
<path id="SvgjsPath2952" opacity="0.4" d="M110.47 109.05C110.436 109.047 110.403 109.042 110.37 109.038C110.36 109.211 110.348 109.385 110.336 109.557C110.379 109.389 110.426 109.218 110.47 109.05ZM110.335 109.555C109.707 111.964 109.217 114.128 109.441 115.006C109.937 114.219 110.164 112.024 110.335 109.555ZM109.44 115.006C109.32 115.194 109.19 115.311 109.038 115.325C108.887 115.337 108.731 115.244 108.573 115.08C108.568 115.294 108.514 115.452 108.384 115.526C108.256 115.6 108.07 115.583 107.844 115.5C107.952 115.694 107.988 115.857 107.914 115.974C107.839 116.091 107.664 116.152 107.424 116.172C107.618 116.298 107.736 116.427 107.732 116.563C107.729 116.697 107.606 116.822 107.404 116.941C107.644 116.971 107.816 117.04 107.883 117.159C107.951 117.279 107.908 117.441 107.792 117.629C108.021 117.558 108.207 117.548 108.33 117.626C108.454 117.705 108.501 117.865 108.495 118.081C108.661 117.925 108.82 117.836 108.974 117.857C109.123 117.875 109.249 117.999 109.357 118.193C109.421 117.984 109.518 117.843 109.664 117.798C109.808 117.753 109.984 117.811 110.18 117.937C110.129 117.728 110.139 117.563 110.243 117.464C110.346 117.365 110.534 117.343 110.777 117.373C110.619 117.208 110.538 117.059 110.581 116.929C110.62 116.798 110.774 116.703 111.005 116.632C110.778 116.551 110.632 116.45 110.596 116.318C110.564 116.187 110.649 116.039 110.815 115.881C110.571 115.901 110.387 115.873 110.289 115.771C110.19 115.668 110.187 115.503 110.25 115.296C110.048 115.414 109.869 115.464 109.728 115.412C109.582 115.361 109.494 115.217 109.44 115.006ZM110.247 115.296C111.101 114.802 112.459 112.951 113.909 110.837C112.084 112.711 110.512 114.425 110.247 115.296ZM113.909 110.836C114.036 110.708 114.165 110.578 114.29 110.446C114.263 110.43 114.239 110.411 114.212 110.394C114.111 110.543 114.01 110.692 113.909 110.836ZM110.812 115.882C111.828 115.794 114.009 114.712 116.405 113.435C113.801 114.346 111.504 115.221 110.812 115.882ZM116.404 113.434C116.57 113.376 116.738 113.318 116.907 113.261C116.893 113.234 116.877 113.211 116.867 113.187C116.714 113.27 116.56 113.353 116.404 113.434ZM111 116.633C111.946 116.971 114.446 116.906 117.244 116.759C114.458 116.499 111.964 116.331 111 116.633ZM117.244 116.758C117.403 116.774 117.565 116.789 117.725 116.804C117.725 116.779 117.727 116.756 117.728 116.732C117.566 116.741 117.403 116.749 117.244 116.758ZM110.774 117.375C111.43 118.065 113.681 119.03 116.232 120.042C113.904 118.67 111.784 117.502 110.774 117.375ZM116.231 120.042C116.349 120.114 116.468 120.185 116.586 120.253C116.599 120.234 116.61 120.215 116.621 120.197C116.494 120.148 116.36 120.095 116.231 120.042ZM110.177 117.938C110.399 118.817 111.882 120.595 113.607 122.542C112.267 120.369 111.007 118.465 110.177 117.938ZM113.607 122.539C113.666 122.633 113.725 122.73 113.784 122.825C113.801 122.814 113.818 122.805 113.837 122.795C113.76 122.71 113.682 122.622 113.607 122.539ZM109.357 118.194C109.09 119.063 109.465 121.243 109.968 123.674C109.924 121.203 109.813 119 109.357 118.194ZM109.967 123.674C109.968 123.772 109.971 123.872 109.971 123.972C109.991 123.97 110.01 123.967 110.029 123.967C110.01 123.871 109.988 123.77 109.967 123.674ZM108.495 118.083C107.799 118.744 106.983 120.826 106.148 123.185C107.411 120.981 108.474 118.984 108.495 118.083ZM106.147 123.185C106.097 123.27 106.047 123.358 105.999 123.446C106.016 123.453 106.032 123.457 106.05 123.465C106.081 123.373 106.115 123.277 106.147 123.185ZM107.79 117.631C106.824 117.931 105.003 119.443 103.021 121.188C105.304 119.754 107.296 118.42 107.79 117.631ZM103.023 121.188C102.927 121.247 102.828 121.311 102.731 121.369C102.746 121.383 102.76 121.394 102.773 121.41C102.854 121.336 102.939 121.263 103.023 121.188ZM107.404 116.944C106.391 116.813 103.984 117.405 101.308 118.136C104.085 117.803 106.547 117.44 107.404 116.944ZM101.308 118.139C101.177 118.155 101.042 118.169 100.906 118.188C100.91 118.207 100.917 118.225 100.924 118.243C101.053 118.21 101.181 118.173 101.308 118.139ZM107.422 116.175C106.596 115.645 104.151 115.183 101.396 114.736C104.03 115.576 106.405 116.264 107.422 116.175ZM101.396 114.736C101.252 114.689 101.105 114.642 100.963 114.595C100.955 114.619 100.947 114.642 100.941 114.663C101.096 114.687 101.248 114.712 101.396 114.736ZM107.844 115.503C107.393 114.697 105.475 113.286 103.271 111.761C105.158 113.584 106.898 115.168 107.844 115.503ZM103.27 111.762C103.152 111.648 103.033 111.533 102.913 111.417C102.893 111.438 102.872 111.456 102.854 111.475C102.994 111.57 103.135 111.666 103.27 111.762ZM108.573 115.081C108.597 114.182 107.641 112.144 106.493 109.891C107.204 112.28 107.911 114.394 108.573 115.081ZM106.493 109.891C106.445 109.731 106.398 109.567 106.35 109.404C106.32 109.413 106.289 109.423 106.26 109.433C106.337 109.585 106.417 109.74 106.493 109.891Z" fill="url(#paint4_radial)"/>
<path id="SvgjsPath2956" d="M112.482 116.366C112.482 117.995 110.986 119.315 109.139 119.315C107.294 119.315 105.795 117.995 105.795 116.366C105.795 114.739 107.294 113.417 109.139 113.417C110.986 113.417 112.482 114.737 112.482 116.366Z" fill="#4E60A3"/>
<path id="SvgjsPath2957" opacity="0.9" d="M112.482 116.366C112.482 117.995 110.986 119.315 109.139 119.315C107.294 119.315 105.795 117.995 105.795 116.366C105.795 114.739 107.294 113.417 109.139 113.417C110.986 113.417 112.482 114.737 112.482 116.366Z" fill="black"/>
<path id="SvgjsPath2958" opacity="0.5" d="M104.473 119.809C105.111 119.43 105.977 119.583 106.405 120.144C106.833 120.707 106.664 121.471 106.024 121.849C105.385 122.228 104.52 122.078 104.092 121.514C103.665 120.951 103.835 120.186 104.473 119.809Z" fill="url(#paint5_linear)"/>
<path id="SvgjsPath2962" opacity="0.5" d="M111.78 115.955C111.423 116.424 110.403 116.37 109.498 115.835C108.592 115.299 108.149 114.484 108.504 114.016V114.015C108.859 113.546 109.881 113.6 110.784 114.137C111.692 114.67 112.135 115.485 111.78 115.955Z" fill="url(#paint6_linear)"/>
<path id="SvgjsPath2966" opacity="0.75" d="M115.837 114.702C115.03 115.796 112.944 115.862 111.184 114.849C109.423 113.837 108.65 112.13 109.458 111.036C110.265 109.943 112.351 109.878 114.111 110.889C115.871 111.903 116.644 113.611 115.837 114.702Z" fill="url(#paint7_linear)"/>
</g>
</g>
</g>
<g id="svga-group-eyesfront-left">
<path id="SvgjsPath4717" d="M82.9262 117.306C82.9262 134.609 94.377 148.632 108.499 148.632C122.62 148.632 134.071 134.609 134.071 117.306C134.071 100.003 122.62 85.9785 108.499 85.9785C94.377 85.9785 82.9262 100.003 82.9262 117.306ZM88.2964 111.705C93.5743 111.358 104.42 110.957 109.45 111.512C116.486 112.288 123.714 114.77 127.618 118.667C124.366 120.948 119.24 122.057 115.692 122.606C109.568 123.552 104.815 123.495 100.507 122.35C96.0662 121.168 90.2967 116.304 88.2964 111.705Z" fill="#F0C7B1"/>
<path id="SvgjsPath4718" d="M83.2195 115.947C83.2579 126.327 95.2727 134.695 110.073 134.641C124.869 134.582 136.834 126.125 136.801 115.745C136.763 105.363 124.745 96.9953 109.947 97.0492C95.1491 97.1081 83.1868 105.565 83.2195 115.947ZM88.388 111.705C93.6659 111.358 104.511 110.957 109.542 111.512C116.577 112.288 123.806 114.77 127.71 118.667C124.458 120.948 119.332 122.057 115.783 122.606C109.66 123.552 104.906 123.495 100.599 122.35C96.1578 121.168 90.3883 116.304 88.388 111.705Z" fill="url(#paint8_radial)"/>
<path id="SvgjsPath4723" d="M88.2959 111.705C93.5738 111.358 104.419 110.957 109.45 111.512C116.485 112.288 123.714 114.77 127.618 118.667C124.366 120.948 119.24 122.057 115.691 122.606C109.568 123.552 104.814 123.495 100.507 122.35C96.0657 121.168 90.2963 116.304 88.2959 111.705Z" fill="url(#paint9_radial)"/>
<path id="SvgjsPath4727" d="M99.6373 107.401C114.701 106.8 119.312 109.253 125.691 112.79C115.093 107.31 101.721 107.334 99.6373 107.401ZM88.3201 116.244C92.3747 123.129 95.1351 122.377 99.0193 123.835C99.0548 123.847 96.874 123.11 95.2346 122.337C90.9867 120.183 90.4667 119.265 88.3201 116.244Z" fill="#C27B55"/>
<path id="SvgjsPath4728" d="M86.7164 110.998C90.7753 118.506 93.4803 123.436 107.078 123.617C117.425 123.754 123.833 122.911 129.218 119.389C124.395 112.881 118.202 110.905 109.939 110.169C101.558 109.423 86.7164 110.998 86.7164 110.998ZM89.6104 112.077C94.5359 111.753 104.655 111.379 109.351 111.896C115.916 112.619 122.661 114.936 126.305 118.572C123.269 120.701 118.486 121.735 115.176 122.248C109.463 123.131 105.025 123.078 101.007 122.01C96.8601 120.908 91.4771 116.368 89.6104 112.077Z" fill="black"/>
</g>
</g>
</g>
<g id="svga-group-eyes-right-move">
<g id="svga-group-eyes-right">
<g id="svga-group-eyesback-right">
<path id="SvgjsPath4700" d="M175.182 122.606C181.305 123.552 186.059 123.495 190.366 122.35C194.809 121.168 200.578 116.304 202.578 111.705C197.301 111.358 186.455 110.957 181.424 111.512C174.764 112.246 167.965 114.527 163.943 118.073C163.965 118.442 164.018 118.804 164.066 119.166C167.314 121.104 171.911 122.099 175.182 122.606Z" fill="url(#paint10_radial)"/>
</g>
<g id="svga-group-eyesiriswrapper-right">
<g id="svga-group-eyesiriscontrol-right">
<g id="svga-group-eyesiris-right">
<path id="SvgjsPath2970" d="M190.828 116.366C190.828 120.518 187.011 123.885 182.305 123.885C177.598 123.885 173.78 120.518 173.78 116.366C173.78 112.214 177.598 108.848 182.305 108.848C187.011 108.847 190.828 112.214 190.828 116.366Z" fill="#4E60A3"/>
<path id="SvgjsPath2971" opacity="0.7" d="M181.359 109.013C181.326 109.017 181.292 109.02 181.258 109.024C181.299 109.193 181.34 109.364 181.379 109.533C181.37 109.361 181.366 109.186 181.359 109.013ZM181.377 109.532C181.475 112.003 181.64 114.204 182.113 115C182.361 114.128 181.937 111.955 181.377 109.532ZM182.112 115.001C182.052 115.211 181.958 115.353 181.818 115.401C181.674 115.449 181.497 115.394 181.296 115.272C181.353 115.481 181.348 115.644 181.245 115.746C181.143 115.847 180.96 115.872 180.717 115.843C180.876 116.006 180.96 116.155 180.924 116.286C180.884 116.416 180.734 116.514 180.508 116.589C180.732 116.668 180.884 116.766 180.92 116.896C180.955 117.026 180.874 117.175 180.714 117.337C180.955 117.311 181.14 117.338 181.24 117.44C181.34 117.541 181.346 117.705 181.289 117.915C181.49 117.793 181.667 117.741 181.808 117.789C181.953 117.837 182.044 117.98 182.101 118.19C182.214 118 182.345 117.878 182.497 117.865C182.646 117.847 182.805 117.939 182.964 118.1C182.967 117.885 183.017 117.726 183.146 117.649C183.27 117.573 183.457 117.588 183.685 117.665C183.574 117.475 183.537 117.313 183.605 117.193C183.677 117.074 183.852 117.01 184.095 116.985C183.895 116.861 183.771 116.734 183.776 116.599C183.774 116.464 183.895 116.337 184.098 116.216C183.855 116.189 183.685 116.125 183.612 116.006C183.541 115.887 183.581 115.724 183.693 115.534C183.464 115.609 183.28 115.624 183.153 115.548C183.027 115.471 182.977 115.312 182.976 115.097C182.818 115.257 182.657 115.346 182.507 115.328C182.355 115.311 182.226 115.193 182.112 115.001ZM182.976 115.095C183.656 114.425 184.426 112.327 185.205 109.953C183.993 112.179 182.979 114.196 182.976 115.095ZM185.205 109.953C185.29 109.8 185.377 109.644 185.459 109.489C185.429 109.48 185.399 109.468 185.37 109.456C185.314 109.623 185.26 109.79 185.205 109.953ZM183.695 115.534C184.651 115.218 186.439 113.676 188.38 111.894C186.132 113.367 184.17 114.737 183.695 115.534ZM188.38 111.894C188.522 111.8 188.667 111.706 188.813 111.612C188.792 111.589 188.771 111.57 188.754 111.55C188.629 111.663 188.505 111.78 188.38 111.894ZM184.097 116.216C185.11 116.326 187.505 115.693 190.164 114.911C187.397 115.297 184.939 115.704 184.097 116.216ZM190.164 114.912C190.321 114.892 190.484 114.87 190.643 114.847C190.636 114.823 190.63 114.8 190.623 114.776C190.471 114.821 190.315 114.867 190.164 114.912ZM184.094 116.984C184.933 117.5 187.387 117.92 190.15 118.316C187.499 117.523 185.108 116.877 184.094 116.984ZM190.15 118.316C190.285 118.357 190.42 118.4 190.555 118.439C190.562 118.417 190.568 118.397 190.574 118.376C190.434 118.357 190.289 118.337 190.15 118.316ZM183.685 117.664C184.156 118.462 186.111 119.842 188.347 121.328C186.418 119.536 184.641 117.985 183.685 117.664ZM188.349 121.326C188.433 121.403 188.518 121.483 188.602 121.562C188.616 121.547 188.63 121.536 188.646 121.522C188.546 121.457 188.444 121.391 188.349 121.326ZM182.969 118.099C182.964 119 183.966 121.02 185.166 123.253C184.399 120.876 183.645 118.773 182.969 118.099ZM185.166 123.254C185.196 123.348 185.227 123.445 185.256 123.541C185.277 123.534 185.293 123.529 185.311 123.523C185.263 123.433 185.213 123.341 185.166 123.254ZM182.102 118.189C181.625 118.987 181.447 121.184 181.332 123.654C181.906 121.235 182.345 119.064 182.102 118.189ZM181.332 123.654C181.308 123.748 181.288 123.843 181.265 123.94C181.285 123.943 181.299 123.943 181.321 123.946C181.323 123.849 181.329 123.749 181.332 123.654ZM181.289 117.913C180.443 118.423 179.128 120.299 177.726 122.437C179.509 120.532 181.042 118.788 181.289 117.913ZM177.726 122.437C177.652 122.516 177.574 122.6 177.497 122.679C177.516 122.689 177.532 122.696 177.55 122.709C177.608 122.619 177.669 122.527 177.726 122.437ZM180.714 117.338C179.697 117.442 177.546 118.564 175.177 119.881C177.76 118.926 180.033 118.012 180.714 117.338ZM175.177 119.883C175.054 119.928 174.929 119.974 174.804 120.021C174.812 120.037 174.824 120.055 174.837 120.071C174.95 120.01 175.064 119.946 175.177 119.883ZM180.508 116.59C179.553 116.268 177.056 116.38 174.263 116.576C177.054 116.787 179.55 116.909 180.508 116.59ZM174.263 116.576C174.112 116.564 173.954 116.551 173.805 116.54C173.804 116.564 173.801 116.588 173.804 116.61C173.959 116.598 174.113 116.586 174.263 116.576ZM180.717 115.846C180.043 115.17 177.777 114.246 175.202 113.276C177.559 114.604 179.704 115.737 180.717 115.846ZM175.202 113.276C175.054 113.192 174.903 113.108 174.754 113.024C174.741 113.048 174.727 113.072 174.714 113.093C174.878 113.154 175.044 113.214 175.202 113.276ZM181.296 115.272C181.056 114.397 179.533 112.648 177.766 110.732C179.153 112.877 180.455 114.758 181.296 115.272ZM177.766 110.732C177.671 110.588 177.577 110.441 177.485 110.295C177.458 110.311 177.429 110.327 177.404 110.344C177.524 110.473 177.648 110.603 177.766 110.732Z" fill="url(#paint11_radial)"/>
<path id="SvgjsPath2975" opacity="0.4" d="M183.639 109.05C183.604 109.047 183.572 109.042 183.539 109.038C183.528 109.211 183.516 109.385 183.505 109.557C183.546 109.389 183.593 109.218 183.639 109.05ZM183.504 109.555C182.874 111.964 182.386 114.128 182.609 115.006C183.106 114.219 183.333 112.024 183.504 109.555ZM182.609 115.006C182.489 115.194 182.357 115.311 182.207 115.325C182.056 115.337 181.9 115.244 181.742 115.08C181.736 115.294 181.682 115.452 181.553 115.526C181.425 115.6 181.239 115.583 181.013 115.5C181.12 115.694 181.157 115.857 181.083 115.974C181.006 116.091 180.833 116.152 180.591 116.172C180.787 116.298 180.904 116.427 180.899 116.563C180.897 116.697 180.773 116.822 180.573 116.941C180.814 116.971 180.983 117.04 181.051 117.159C181.12 117.279 181.077 117.441 180.961 117.629C181.191 117.558 181.377 117.548 181.5 117.626C181.624 117.705 181.671 117.865 181.664 118.081C181.83 117.925 181.989 117.836 182.143 117.857C182.292 117.875 182.418 117.999 182.526 118.193C182.592 117.984 182.687 117.843 182.833 117.798C182.977 117.753 183.154 117.811 183.349 117.937C183.299 117.728 183.309 117.563 183.413 117.464C183.515 117.365 183.702 117.343 183.945 117.373C183.789 117.208 183.707 117.059 183.749 116.929C183.788 116.798 183.943 116.703 184.174 116.632C183.948 116.551 183.801 116.45 183.765 116.318C183.734 116.187 183.819 116.039 183.984 115.881C183.739 115.901 183.555 115.873 183.458 115.771C183.359 115.668 183.356 115.503 183.42 115.296C183.217 115.414 183.038 115.464 182.897 115.412C182.752 115.361 182.661 115.217 182.609 115.006ZM183.416 115.296C184.269 114.802 185.628 112.951 187.078 110.837C185.252 112.711 183.681 114.425 183.416 115.296ZM187.078 110.836C187.205 110.708 187.334 110.578 187.46 110.446C187.432 110.43 187.408 110.411 187.381 110.394C187.28 110.543 187.179 110.692 187.078 110.836ZM183.981 115.882C184.997 115.794 187.176 114.712 189.574 113.435C186.97 114.346 184.673 115.221 183.981 115.882ZM189.573 113.434C189.738 113.376 189.905 113.318 190.076 113.261C190.062 113.234 190.046 113.211 190.036 113.187C189.883 113.27 189.729 113.353 189.573 113.434ZM184.168 116.633C185.115 116.971 187.615 116.906 190.414 116.759C187.625 116.499 185.133 116.331 184.168 116.633ZM190.412 116.758C190.57 116.774 190.733 116.789 190.894 116.804C190.895 116.779 190.895 116.756 190.897 116.732C190.736 116.741 190.572 116.749 190.412 116.758ZM183.943 117.375C184.6 118.065 186.849 119.03 189.401 120.042C187.072 118.67 184.953 117.502 183.943 117.375ZM189.399 120.042C189.516 120.114 189.637 120.185 189.755 120.253C189.767 120.234 189.78 120.215 189.789 120.197C189.662 120.148 189.529 120.095 189.399 120.042ZM183.347 117.938C183.568 118.817 185.051 120.595 186.775 122.542C185.436 120.369 184.177 118.465 183.347 117.938ZM186.777 122.539C186.835 122.633 186.893 122.73 186.953 122.825C186.97 122.814 186.986 122.805 187.006 122.795C186.929 122.71 186.849 122.622 186.777 122.539ZM182.526 118.194C182.259 119.063 182.634 121.243 183.137 123.674C183.093 121.203 182.982 119 182.526 118.194ZM183.136 123.674C183.137 123.772 183.14 123.872 183.14 123.972C183.161 123.97 183.177 123.967 183.197 123.967C183.178 123.871 183.157 123.77 183.136 123.674ZM181.662 118.083C180.968 118.744 180.151 120.826 179.315 123.185C180.58 120.981 181.641 118.984 181.662 118.083ZM179.315 123.185C179.266 123.27 179.217 123.358 179.168 123.446C179.185 123.453 179.199 123.457 179.217 123.465C179.25 123.373 179.284 123.277 179.315 123.185ZM180.959 117.631C179.993 117.931 178.173 119.443 176.191 121.188C178.473 119.754 180.465 118.42 180.959 117.631ZM176.191 121.188C176.096 121.247 175.995 121.311 175.9 121.369C175.914 121.383 175.928 121.394 175.941 121.41C176.022 121.336 176.109 121.263 176.191 121.188ZM180.573 116.944C179.56 116.813 177.155 117.405 174.478 118.136C177.254 117.803 179.717 117.44 180.573 116.944ZM174.478 118.139C174.346 118.155 174.211 118.169 174.076 118.188C174.082 118.207 174.087 118.225 174.094 118.243C174.222 118.21 174.35 118.173 174.478 118.139ZM180.591 116.175C179.764 115.645 177.319 115.183 174.565 114.736C177.199 115.576 179.574 116.264 180.591 116.175ZM174.565 114.736C174.421 114.689 174.273 114.642 174.131 114.595C174.123 114.619 174.116 114.642 174.11 114.663C174.263 114.687 174.417 114.712 174.565 114.736ZM181.013 115.503C180.561 114.697 178.642 113.286 176.439 111.761C178.327 113.584 180.067 115.168 181.013 115.503ZM176.439 111.762C176.321 111.648 176.201 111.533 176.082 111.417C176.061 111.438 176.042 111.456 176.021 111.475C176.161 111.57 176.305 111.666 176.439 111.762ZM181.742 115.081C181.766 114.182 180.81 112.144 179.662 109.891C180.374 112.28 181.08 114.394 181.742 115.081ZM179.662 109.891C179.614 109.731 179.567 109.567 179.517 109.404C179.487 109.413 179.456 109.423 179.428 109.433C179.506 109.585 179.585 109.74 179.662 109.891Z" fill="url(#paint12_radial)"/>
<path id="SvgjsPath2979" d="M185.646 116.366C185.646 117.995 184.149 119.315 182.304 119.315C180.457 119.315 178.959 117.995 178.959 116.366C178.959 114.739 180.458 113.417 182.304 113.417C184.152 113.417 185.646 114.737 185.646 116.366Z" fill="#4E60A3"/>
<path id="SvgjsPath2980" opacity="0.9" d="M185.646 116.366C185.646 117.995 184.149 119.315 182.304 119.315C180.457 119.315 178.959 117.995 178.959 116.366C178.959 114.739 180.458 113.417 182.304 113.417C184.152 113.417 185.646 114.737 185.646 116.366Z" fill="black"/>
<path id="SvgjsPath2981" opacity="0.5" d="M177.64 119.809C178.277 119.43 179.145 119.583 179.571 120.144C180 120.707 179.831 121.471 179.19 121.849C178.551 122.228 177.686 122.078 177.259 121.514C176.83 120.951 177.001 120.186 177.64 119.809Z" fill="url(#paint13_linear)"/>
<path id="SvgjsPath2985" opacity="0.5" d="M184.945 115.955C184.588 116.424 183.568 116.37 182.665 115.835C181.758 115.299 181.315 114.484 181.67 114.016L181.672 114.015C182.027 113.546 183.048 113.6 183.952 114.137C184.858 114.67 185.301 115.485 184.945 115.955Z" fill="url(#paint14_linear)"/>
<path id="SvgjsPath2989" opacity="0.75" d="M189.005 114.702C188.196 115.796 186.112 115.862 184.35 114.849C182.59 113.837 181.816 112.13 182.624 111.036C183.431 109.943 185.515 109.878 187.277 110.889C189.037 111.903 189.81 113.611 189.005 114.702Z" fill="url(#paint15_linear)"/>
</g>
</g>
</g>
<g id="svga-group-eyesfront-right">
<path id="SvgjsPath4738" d="M182.375 85.9785C168.253 85.9785 156.803 100.004 156.803 117.306C156.803 134.609 168.253 148.632 182.375 148.632C196.497 148.632 207.947 134.609 207.947 117.306C207.947 100.003 196.497 85.9785 182.375 85.9785ZM190.365 122.35C186.059 123.495 181.304 123.552 175.181 122.606C171.633 122.057 166.507 120.948 163.254 118.667C167.158 114.77 174.386 112.288 181.422 111.512C186.452 110.957 197.298 111.358 202.576 111.705C200.575 116.304 194.807 121.168 190.365 122.35Z" fill="#F0C7B1"/>
<path id="SvgjsPath4739" d="M181.017 97.0492C166.219 96.9953 154.202 105.363 154.163 115.745C154.131 126.125 166.094 134.582 180.891 134.641C195.692 134.695 207.706 126.327 207.745 115.947C207.778 105.565 195.815 97.1081 181.017 97.0492ZM190.364 122.35C186.058 123.495 181.303 123.552 175.18 122.606C171.632 122.057 166.506 120.948 163.253 118.667C167.157 114.77 174.386 112.288 181.421 111.512C186.452 110.957 197.297 111.358 202.575 111.705C200.575 116.304 194.807 121.168 190.364 122.35Z" fill="url(#paint16_radial)"/>
<path id="SvgjsPath4744" d="M202.577 111.705C197.299 111.358 186.453 110.957 181.423 111.512C174.387 112.288 167.159 114.77 163.255 118.667C166.507 120.948 171.633 122.057 175.182 122.606C181.305 123.552 186.058 123.495 190.366 122.35C194.807 121.168 200.575 116.304 202.577 111.705Z" fill="url(#paint17_radial)"/>
<path id="SvgjsPath4748" d="M165.18 112.789C171.56 109.253 176.17 106.798 191.235 107.401C189.151 107.333 175.779 107.31 165.18 112.789ZM195.639 122.338C194 123.111 191.819 123.848 191.855 123.836C195.739 122.378 198.5 123.13 202.554 116.245C200.406 119.265 199.887 120.182 195.639 122.338Z" fill="#C27B55"/>
<path id="SvgjsPath4749" d="M180.935 110.169C172.672 110.905 166.478 112.882 161.656 119.389C167.04 122.909 173.449 123.754 183.796 123.617C197.392 123.436 200.097 118.506 204.156 110.998C204.156 110.998 189.315 109.423 180.935 110.169ZM189.866 122.01C185.849 123.078 181.412 123.131 175.698 122.248C172.388 121.735 167.604 120.701 164.568 118.572C168.211 114.936 174.958 112.619 181.523 111.896C186.218 111.379 196.338 111.753 201.263 112.077C199.395 116.368 194.012 120.908 189.866 122.01Z" fill="black"/>
</g>
</g>
</g>
<g id="svga-group-facehighlight-single">
<path id="SvgjsPath2906" d="M203.969 153.612C204.018 181.959 177.981 204.98 145.808 205.019C113.641 205.065 87.5203 182.122 87.4706 153.768C87.4209 125.424 113.458 102.312 145.629 102.267C177.798 102.223 203.922 125.261 203.969 153.612Z" fill="url(#paint18_radial)"/>
<path id="SvgjsPath2910" d="M198.996 78.4601C198.996 104.412 175.144 125.45 145.721 125.45C116.298 125.45 92.4442 104.412 92.4442 78.4601C92.4442 52.5078 116.298 31.47 145.721 31.47C175.144 31.47 198.996 52.5078 198.996 78.4601Z" fill="url(#paint19_radial)"/>
</g>
<g id="svga-group-eyebrows-left-move">
<g id="svga-group-eyebrows-left-rotate">
<g id="svga-group-eyebrows-left">
<path id="SvgjsPath4770" d="M80.6588 106.028C110.912 83.723 142.51 100.385 132.825 104.439C129.029 106.028 114.653 92.2426 80.6588 106.028Z" fill="#2A232B"/>
</g>
</g>
</g>
<g id="svga-group-eyebrows-right-move">
<g id="svga-group-eyebrows-right-rotate">
<g id="svga-group-eyebrows-right">
<path id="SvgjsPath4771" d="M210.782 106.028C180.529 83.723 148.931 100.385 158.616 104.439C162.412 106.028 176.788 92.2426 210.782 106.028Z" fill="#2A232B"/>
</g>
</g>
</g>
<g id="svga-group-nose-single-move">
<g id="svga-group-nose-single">
<path id="SvgjsPath5170" d="M144.419 123.57C144.419 123.57 143.159 149.2 143.333 154.829C143.382 156.427 146.869 160.615 146.631 163.668C146.631 163.668 139.829 163.231 137.617 162.543C135.303 161.819 131.72 160.408 133.136 156.466C135.154 150.858 144.419 123.57 144.419 123.57Z" fill="#E1AC8F"/>
<path id="SvgjsPath5171" d="M143.785 160.659C143.785 160.659 140.965 159.776 139.183 159.821C137.561 159.865 137.328 158.911 137.491 158.37C137.656 157.827 138.211 157.492 139.778 157.86C141.345 158.228 143.785 160.659 143.785 160.659ZM147.983 160.662C147.983 160.662 150.796 159.844 152.584 159.826C154.207 159.808 154.443 158.916 154.277 158.376C154.112 157.831 153.555 157.493 151.989 157.861C150.422 158.233 147.983 160.662 147.983 160.662Z" fill="#C27B55"/>
</g>
</g>
<g id="svga-group-beardwrap">
<g id="svga-group-beard-single-move">
<g id="svga-group-beard-single">
<path id="SvgjsPath4889" d="M175.37 176.012C175.355 173.23 174.517 170.661 171.15 169.421C166.348 167.654 160.111 165.937 155.352 164.095C152.766 163.093 150.437 162.968 149.087 165.436C147.496 168.368 150.096 169.07 152.525 169.834C171.676 175.824 172.187 172.529 171.676 194.019C171.562 198.63 169.019 201.011 165.453 202.677C161.731 204.407 159.33 201.286 157.014 199.206C153.789 196.324 150.664 193.355 145.72 188.756C140.776 193.355 137.65 196.324 134.425 199.206C132.11 201.286 129.723 204.407 125.986 202.677C122.421 201.023 119.863 198.63 119.764 194.019C119.252 172.529 119.764 175.824 138.915 169.834C141.344 169.07 143.944 168.356 142.353 165.436C141.003 162.968 138.673 163.093 136.088 164.095C131.328 165.937 125.091 167.654 120.29 169.421C116.922 170.661 116.084 173.23 116.07 176.012C116.042 184.871 115.729 193.743 116.34 202.577C116.88 210.321 137.082 224.606 145.72 223.616C154.358 224.606 174.56 210.309 175.1 202.577C175.711 193.743 175.398 184.871 175.37 176.012Z" fill="#2A232B"/>
<path id="SvgjsPath4890" d="M150.001 220.057C150.001 217.551 150.229 216.712 151.422 213.792C148.495 217.326 148.439 218.554 146.308 220.308C146.308 219.055 145.739 216.298 145.739 215.045C144.688 215.972 144.29 219.606 143.679 220.421C143.381 219.017 140.057 217.075 140.057 215.045C138.636 217.551 141.477 218.804 141.477 221.31C131.362 215.734 121.374 210.81 116.26 201.249C116.317 202.564 116.26 201.249 116.345 202.564C116.885 210.308 137.087 224.593 145.725 223.604C154.363 224.593 174.565 210.296 175.105 202.564C175.261 200.234 175.219 202.564 175.261 200.234C171.482 211.198 161.807 215.897 150.001 220.057Z" fill="#1B141C"/>
</g>
</g>
</g>
<g id="svga-group-hair-front">
<path id="SvgjsPath4775" opacity="0.1" d="M85.7697 46.7995C98.8926 35.7851 149.061 45.8459 164.188 47.099C178.596 48.0789 197.611 9.08233 226.135 109.099C226.071 113.91 224.304 122.423 222.163 128.482C221.957 128.355 221.757 128.221 221.551 128.098C221.551 128.098 222.287 132.179 212.943 146.13C213.439 136.014 211.221 128.721 209.402 119.297C187.085 94.2517 166.229 88.3786 150.359 84.0167C161.014 94.9873 171.554 105.056 176.165 116.05C156.779 104.051 130.124 79.8566 130.124 79.8566C130.124 79.8566 132.118 85.751 169.458 116.051C153.912 112.693 124.925 98.9094 104.622 72.2542C100.721 77.893 122.239 110.841 122.845 112.103C111.959 104.477 97.1608 93.7631 93.359 81.2525C93.359 81.2525 91.1271 86.3186 89.5771 92.0727C85.4884 107.312 85.4515 126.257 84.7056 131.074C82.3401 120.146 81.9708 107.915 81.975 108.074C76.4272 130.495 81.3798 146.16 81.4749 151.586C74.0902 138.51 66.4099 122.894 64.1752 108.312C64.178 108.312 80.6822 44.7946 85.7697 46.7995Z" fill="#2A232B"/>
<path id="SvgjsPath4776" d="M45.3945 95.8331C45.5081 89.0791 46.9856 78.3904 49.5443 72.3005C44.8844 76.5484 39.017 81.5607 34.2293 84.2047C40.5655 79.3678 42.5275 75.2327 56.8481 48.7429C65.6407 32.4781 71.4627 15.2234 88.6402 13.1934C94.4352 12.4917 100.077 14.4339 105.375 16.4388C119.027 5.42438 136.047 0.987269 151.79 2.24034C199.921 5.38553 212.76 32.8039 238.503 38.2923C234.468 39.3324 227.683 37.7059 223.819 36.102C229.146 42.4425 227.26 41.7796 239.009 52.1425C243.795 56.3277 248.218 61.4703 253.987 64.4902C246.246 63.6368 242.177 58.4329 230.855 53.0823C232.488 55.3879 238.313 63.2246 247.803 71.2442C251.88 74.6776 258.6 79.4944 263.285 82.4141C259.863 81.2111 249.806 77.7451 241.113 70.946C245.615 76.6236 258.533 87.1607 252.684 108.389C251.502 99.1087 252.687 87.8198 242.67 82.206C243.784 86.3424 248.088 95.0149 244.949 104.395H229.413C229.347 109.206 227.507 118.096 225.282 124.155C225.068 124.028 224.86 123.894 224.644 123.772C224.644 123.772 223.93 127.853 214.211 141.803C214.726 131.687 213.895 124.394 212.004 114.97C188.782 89.9249 167.084 84.0518 150.572 79.6899C161.659 90.6605 170.196 103.294 174.997 114.29C159.304 99.6788 126.929 76.9895 126.929 76.9895C126.929 76.9895 127.446 83.0869 166.299 113.386C152.875 106.125 124.108 94.5826 102.985 67.9273C98.9246 73.5661 118.355 106.514 118.988 107.776C107.659 100.15 98.1801 86.9301 94.2178 74.4195C94.2178 74.4195 88.9386 81.9918 87.3318 87.7458C83.0768 102.986 84.5131 115.665 83.7403 120.482C81.2796 109.554 79.4185 103.588 79.4228 103.748C73.6463 126.169 80.2809 144.339 80.3775 149.765C72.6973 136.689 63.2269 118.441 60.9013 103.859H44.4256C45.376 98.437 44.6713 98.422 45.3945 95.8331Z" fill="#2A232B"/>
<path id="SvgjsPath4777" d="M35.9918 57.5154C41.4061 57.3024 44.3398 57.6395 50.7045 57.1884C51.6564 55.2712 54.5943 50.2338 55.5888 48.3292C50.6178 52.2137 40.2965 57.127 35.9918 57.5154Z" fill="#0C080C"/>
<path id="SvgjsPath4778" d="M174.134 18.3148C196.904 15.4453 218.034 37.0132 237.242 38.3665C233.16 39.1058 226.748 37.0858 223.05 35.5508C228.378 41.8914 226.943 41.9289 238.693 52.2918C243.48 56.4771 246.891 60.9631 252.659 63.983C246.476 63.0783 241.479 57.774 230.417 52.4811C217.419 35.537 197.569 20.6117 174.134 18.3148ZM94.2179 74.4236C94.2179 74.4236 88.9386 81.9959 87.3318 87.75C83.0768 102.99 84.5132 115.67 83.7403 120.486C81.2797 109.558 79.4186 103.593 79.4228 103.752C79.2836 104.288 79.16 104.818 79.0364 105.349C73.966 127.031 80.2838 144.473 80.3775 149.769C72.6973 136.694 63.227 118.571 60.9013 103.99H44.4256C45.376 98.5665 44.6713 98.4262 45.3945 95.8386C45.5081 89.0845 46.9856 78.3958 49.5443 72.3059C44.8844 76.5538 39.017 81.5661 34.2293 84.2101C40.4576 79.4559 42.4679 75.3634 56.132 50.0739C60.3415 44.296 65.1065 38.8238 70.4242 33.3517C60.4794 44.6293 54.7966 58.4131 53.3759 72.1969C56.2173 64.6785 64.8537 59.586 70.714 53.6101C64.5397 62.1197 60.083 70.3862 57.638 82.2214C59.4323 79.5073 61.9711 77.9911 63.8208 75.9561C60.8899 83.4833 61.7466 87.8001 63.048 93.5404C64.3294 84.6098 66.459 70.1055 71.8449 62.1723C71.8449 75.9561 66.9989 89.1998 73.2727 103.871C73.2144 93.0104 77.8785 83.1262 81.1234 75.7005C80.4784 78.3971 80.9742 85.0421 81.1461 87.7901C82.9618 79.4346 84.1949 71.237 89.7171 64.5043C87.2537 52.0137 83.3695 38.592 88.6033 35.3015C80.0977 48.3309 106.343 59.7013 105.559 59.1474C120.239 66.34 129.543 67.2172 137.155 68.9163C132.19 65.3915 129.61 61.0057 124.596 57.5184C138.803 61.8415 158.64 75.213 168.76 80.6764C171.462 84.165 171.707 85.0521 172.512 86.7325C166.714 84.3166 159.47 82.0435 150.574 79.6927C171.045 99.9486 166.954 95.8636 174.998 114.293C161.054 101.309 161.076 100.937 128.935 78.3983C132.818 82.8668 143.101 95.2972 166.301 113.389C161.058 110.553 122.068 92.0104 102.986 67.9302C102.076 74.475 103.094 78.7743 118.989 107.779C116.079 106.993 104.759 98.0615 94.2179 74.4236ZM172.511 86.7338C184.591 91.7673 198.019 99.8923 212.004 114.974C213.895 124.399 214.726 131.691 214.211 141.807C216.38 138.694 218.081 136.096 219.445 133.902C224.193 126.264 224.644 123.776 224.644 123.776C224.86 123.899 225.068 124.033 225.282 124.159C227.507 118.101 229.347 109.587 229.414 104.777H244.662C247.804 95.3975 243.171 85.6762 242.058 81.5398C252.075 87.1535 252.343 97.5039 252.812 106.802C257.6 85.913 244.359 75.926 240.168 69.9489C248.934 75.9511 258.724 80.6376 262.148 81.8405C257.458 78.9209 251.62 74.9862 247.543 71.5528C242.373 67.1846 238.141 62.5558 235.085 58.8667C228.428 55.8568 223.469 51.3495 216.755 48.3885C228.017 55.0098 231.564 65.5193 235.162 75.6366C233.437 73.4399 230.648 71.9575 229.152 69.9827C230.929 74.1003 233.541 78.3708 232.383 83.4745C225.279 74.703 222.438 62.1723 211.072 54.6539C222.55 64.7774 223.346 91.4415 223.297 96.1907C211.716 47.2244 162.685 1.15026 113.045 18.3148C162.769 4.53104 205.39 50.8947 211.072 90.9929C201.128 80.9684 198.286 68.4377 184.079 62.1723C191.183 68.4377 195.445 78.4622 199.707 85.9807C184.079 69.6907 171.293 53.4008 149.983 42.1232C159.928 52.1477 172.714 60.9192 179.817 73.45C184.079 77.2092 185.5 82.2214 188.341 85.9807C178.397 77.2092 165.9 68.2359 153.01 64.909C167.484 75.9035 171.493 84.6073 172.511 86.7338Z" fill="#1B141C"/>
<path id="SvgjsPath4779" d="M170.96 18.1004C182.74 18.0641 215.744 26.2379 232.183 54.689C214.572 33.1248 196.459 23.1916 170.96 18.1004ZM199.486 59.3003C181.085 25.3068 146.696 14.8424 128.265 15.8925C141.581 15.1381 179.115 27.1702 199.486 59.3003ZM107.618 29.0398C106.753 22.4323 96.6009 15.6456 85.5038 19.4487C84.5505 19.7758 83.7123 20.3722 82.7633 20.6755C94.879 16.8147 105.952 22.5538 107.618 29.0398ZM104.207 33.309C100.981 29.2415 96.6151 25.491 90.982 24.2893C73.8584 20.6379 61.0466 43.0003 58.083 53.0086C58.4567 51.7518 73.1367 21.5965 91.465 25.3582C96.7514 26.4221 100.846 29.734 104.207 33.309ZM102.494 36.1973C100.89 53.6565 146.358 65.9792 156.331 73.42C138.581 60.1762 102.767 51.9999 102.494 36.1973ZM180.943 74.8899C177.177 69.335 161.534 47.0126 136.392 33.7313C120.797 25.4935 114.743 30.4683 111.777 31.6812C131.962 23.4435 168.943 60.2176 180.943 74.8899Z" fill="#0C080C"/>
<path id="SvgjsPath4780" d="M223.298 48.6606C223.298 48.6606 204.832 31.0939 177.297 22.4954C197.877 27.0315 210.107 35.9608 223.298 48.6606ZM177.8 24.0091C189.696 27.5953 210.26 47.7345 212.854 51.6629C206.143 41.4993 190.373 26.945 177.8 24.0091ZM140.327 20.7398C163.664 25.4626 184.912 48.6317 184.912 48.6317C175.006 35.1087 158.71 22.0781 140.327 20.7398ZM120.187 32.7943C131.484 35.3581 156.961 53.9284 158.268 55.5524C154.592 50.9875 132.538 34.328 120.187 32.7943ZM112.07 34.7441C124.484 36.1613 134.78 45.3274 136.316 47.1807C129.863 39.3954 123.244 34.9834 112.07 34.7441ZM110.832 38.2113C122.96 49.2946 141.024 52.5325 147.576 60.0759C138.525 49.6555 121.903 47.2496 110.832 38.2113ZM125.639 64.4642C109.712 56.8405 98.6946 50.2194 96.2269 48.3611C93.6185 46.4 86.964 41.6823 91.8299 36.8943C88.2185 38.9869 88.9743 43.6383 93.8131 48.0779C99.0754 52.9072 124.216 64.4642 125.639 64.4642C125.638 64.4642 124.261 63.8038 125.639 64.4642ZM136.857 68.9C124.554 66.2936 111.957 62.5921 101.397 56.3117C94.049 51.9423 83.1196 41.7462 88.8095 35.759C90.4376 34.0411 93.8657 33.2366 96.3349 33.2617C93.8742 33.2354 90.895 33.7629 88.9927 35.2114C83.4918 39.4017 89.3735 50.1166 98.5625 55.9371C109.682 62.9805 123.646 66.3976 136.857 68.9ZM137.475 25.8197C139.834 26.2358 142.172 26.5114 144.438 27.2746C163.673 33.7429 182.003 53.6853 182.003 53.6853C172.095 40.6322 155.41 27.3121 137.475 25.8197ZM139.24 31.3721C161.341 38.8754 185.499 63.8852 186.92 64.7824C176.169 50.4061 158.03 35.531 139.24 31.3721ZM83.3725 34.417C68.7081 31.8557 61.8007 53.7179 60.9554 54.9722C65.9321 45.9765 73.5356 33.5862 83.3725 34.417ZM83.5231 49.3272C71.0764 59.6248 73.7715 72.6617 73.9803 78.7466C73.7459 67.692 76.968 56.2027 83.5231 49.3272Z" fill="#3A353A"/>
<path id="SvgjsPath4781" d="M48.3893 74.0308C42.7349 87.8021 44.3119 102.075 44.2253 103.328C44.113 103.542 43.8871 103.991 43.7749 104.209C45.2666 103.928 44.9328 104.201 45.3078 104.201C48.1677 98.7652 51.762 91.6603 61.3872 80.2222C55.2924 86.7006 49.7944 93.5048 45.4613 101.048C48.0341 86.5753 58.489 74.5709 59.698 73.0421C53.9584 79.4704 48.5882 86.3372 45.6758 94.8331C45.7894 88.079 47.5497 77.6409 50.1083 71.551C45.4485 75.7989 39.581 81.1871 34.7933 83.8311C41.1296 78.9942 43.3743 75.235 57.6948 48.7451C66.4875 32.4802 71.4599 15.476 88.6374 13.446C94.4324 12.7443 100.074 14.4359 105.372 16.4409C119.025 5.42635 136.044 1.61701 151.787 2.87009C199.919 6.0153 212.037 32.7684 237.78 38.2569C233.745 39.2969 226.912 37.1541 223.047 35.5502C228.375 41.8908 226.94 41.9284 238.691 52.2913C243.477 56.4765 246.888 60.9625 252.656 63.9824C246.405 63.0677 241.376 57.6544 230.053 52.3038C231.685 54.6094 238.05 63.5313 247.542 71.551C251.619 74.9844 257.457 78.9191 262.146 81.8387C258.722 80.6358 248.932 75.9493 240.167 69.9471C244.358 75.9242 257.6 85.9112 252.811 106.8C252.342 97.5021 252.072 87.1517 242.056 81.538C243.17 85.6744 247.803 95.3957 244.66 104.775H245.111H246.354C249.397 96.0811 245.131 87.5439 243.392 83.192C252.497 90.4598 252.356 106.136 251.447 113.741C255.029 105.157 256.39 96.8881 253.521 88.0665C251.916 83.1043 248.549 78.7186 245.054 74.6461C244.812 74.3579 244.555 74.0697 244.314 73.7815C250.977 78.493 259.261 82.6532 267.201 83.9815C267.201 83.9815 242.951 68.6689 232.664 54.835C235.221 56.4515 238.702 59.0203 242.098 61.0377C246.999 63.9824 250.863 65.4736 256.503 64.8471C249.798 62.1279 245.379 56.3387 240.664 52.0031C230.194 42.3043 234.47 47.7175 225.662 37.3922C232.765 39.9485 236.528 39.6979 240.82 38.332C238.404 37.8308 235.876 37.2419 233.603 36.465C214.552 29.9615 193.183 0.150919 148.021 0.000550279C132.535 -0.0621033 115.855 5.22586 104.946 15.6514C103.056 14.8871 101.138 14.2355 99.206 13.6841C74.6848 6.72955 66.2886 26.6158 55.5339 46.7777C51.4424 49.7726 43.5007 56.7271 32.7617 57.6544C37.9756 57.9802 43.4737 58.3812 49.8952 57.905C40.4903 76.7763 39.9802 78.8313 27.7751 87.6655C38.2172 84.4689 41.5274 80.8099 48.3893 74.0308ZM54.7398 49.3328C53.7453 51.2374 51.3727 54.7711 50.4209 56.6883C44.0562 57.1394 42.5361 57.177 37.1232 57.39C41.4279 57.0016 49.7674 53.2173 54.7398 49.3328ZM60.3899 99.185C60.3899 101.503 63.4046 113.678 66.6579 121.184C64.9815 112.651 64.6548 103.741 64.9119 95.095C65.1676 86.1606 66.7588 77.4016 69.657 68.8431C62.9514 93.4284 66.5741 125.394 79.9272 148.126C77.2151 136.21 75.6367 124.142 77.3557 112.013C77.7535 109.206 78.2934 106.424 79.0037 103.667C79.0037 103.667 77.6967 93.179 81.1206 75.6987C78.7892 90.1967 80.4102 104.306 83.621 118.566C83.3084 108.191 83.9051 97.7277 86.917 87.653C88.5636 82.1394 90.382 80.4102 93.3101 74.0195C91.7033 68.8819 90.8793 63.594 90.3124 58.306C93.0544 74.3829 97.9827 83.5554 107.858 96.5874C110.786 100.434 113.825 103.968 118.03 106.8C115.075 102.239 105.301 82.8662 104.718 81.563C102.772 77.2149 101.593 72.7163 102.489 68.0549C99.591 64.0451 97.0479 59.8348 94.7322 55.5367C102.161 67.6915 111.836 78.3552 123.629 87.4775C129.724 92.2016 136.215 96.5623 142.894 100.61C149.771 104.782 157.157 108.04 164.247 111.875C154.984 105.033 145.792 97.5898 139.512 91.5626C135.705 87.9036 131.258 84.207 128.189 80.0218C125.135 75.849 123.814 71.0748 121.399 66.6139C123.8 70.2603 125.519 74.1574 127.294 76.8014C127.735 77.453 144.086 88.2795 151.29 94.3193C160.439 101.976 165.142 104.544 173.809 112.614C169.844 104.87 168.807 101.123 157.996 88.48C150.864 80.1345 147.923 79.6709 138.42 66.6139C140.876 69.5837 143.362 72.4657 146.191 75.1724C147.669 76.5883 149.174 77.9542 150.695 79.3326C159.517 81.6633 167.686 82.9915 181.465 90.535C205.15 103.504 210.165 113.14 219.783 121.411C218.078 116.185 212.85 107.439 208.161 100.234C203.885 93.6552 199.183 86.851 193.969 81.2623C200.562 86.4751 205.434 93.1289 209.781 99.8579C214.356 106.975 219.456 114.632 221.003 122.802C218.007 120.772 215.306 118.504 212.665 116.11C214.255 124.042 215.123 132.312 214.709 140.37C227.518 121.972 232.518 95.8556 228.702 79.2361C238.566 113.219 220.567 134.597 212.139 148C212.793 139.805 211.855 120.457 211.131 114.919C207.991 111.461 185.683 90.3734 152.47 80.9102C158.324 86.0728 163.451 91.436 167.501 97.8392C171.209 103.729 174.747 109.894 176.878 116.673C169.348 110.032 161.138 103.992 153.097 97.8643C144.829 91.5613 136.844 84.9827 128.604 78.6547C130.833 81.5994 133.463 84.3812 149.601 98.2652C158.111 105.596 171.38 116.172 171.664 116.447C170.243 115.971 146.433 105.057 135.266 97.5886C123.588 89.7819 111.086 79.9077 103.187 69.006C102.492 76.537 107.535 84.6067 110.148 89.4687C112.989 94.7441 117.222 104.004 121.839 110.721C114.679 107.012 109.266 101.761 104.904 95.5085C100.374 89.0176 96.295 82.7397 93.7661 75.4217C91.6351 79.1559 89.3052 82.89 88.3107 87.0126C87.2594 91.3483 86.5647 95.7215 86.0802 100.132C85.1283 108.992 84.0486 118.089 84.6311 126.998C82.1591 120.144 80.2696 113.29 79.4598 106.109C77.0446 118.039 79.3305 135.532 81.9872 152.824C74.6721 144.026 68.4906 131.321 64.9531 119.868C62.6246 112.3 59.9921 104.147 60.3899 99.185Z" fill="black"/>
</g>
</g>
</g>
</g>
</g>
<defs>
<linearGradient id="paint0_linear" x1="145.721" y1="225.07" x2="145.721" y2="174.947" gradientUnits="userSpaceOnUse">
<stop stop-color="#E1AC8F" stop-opacity="0.8"/>
<stop offset="0.7" stop-color="#C27B55"/>
</linearGradient>
<linearGradient id="paint1_linear" x1="145.721" y1="191.237" x2="145.721" y2="187.478" gradientUnits="userSpaceOnUse">
<stop offset="0.1" stop-color="#E8B9A0"/>
<stop offset="1" stop-color="#E1AC8F"/>
</linearGradient>
<radialGradient id="paint2_radial" cx="0" cy="0" r="1" gradientUnits="userSpaceOnUse" gradientTransform="translate(107.079 117.098) rotate(180) scale(19.8897 17.543)">
<stop stop-color="white"/>
<stop offset="0.544" stop-color="#FDFEFE"/>
<stop offset="0.74" stop-color="#F6F8F9"/>
<stop offset="0.879" stop-color="#EAEFF2"/>
<stop offset="0.992" stop-color="#D9E3E8"/>
<stop offset="1" stop-color="#D8E2E7"/>
</radialGradient>
<radialGradient id="paint3_radial" cx="0" cy="0" r="1" gradientUnits="userSpaceOnUse" gradientTransform="translate(109.04 116.474) rotate(-12.836) scale(8.35809 7.47747)">
<stop stop-color="white"/>
<stop offset="1" stop-color="white" stop-opacity="0"/>
</radialGradient>
<radialGradient id="paint4_radial" cx="0" cy="0" r="1" gradientUnits="userSpaceOnUse" gradientTransform="translate(109.105 116.494) rotate(0.451618) scale(8.4118 7.41964)">
<stop stop-color="white"/>
<stop offset="1" stop-color="white" stop-opacity="0"/>
</radialGradient>
<linearGradient id="paint5_linear" x1="104.406" y1="121.713" x2="105.545" y2="120.174" gradientUnits="userSpaceOnUse">
<stop stop-color="white"/>
<stop offset="1" stop-color="white" stop-opacity="0"/>
</linearGradient>
<linearGradient id="paint6_linear" x1="110.859" y1="114.231" x2="109.948" y2="115.463" gradientUnits="userSpaceOnUse">
<stop stop-color="white"/>
<stop offset="1" stop-color="white" stop-opacity="0"/>
</linearGradient>
<linearGradient id="paint7_linear" x1="114.303" y1="111.13" x2="112.202" y2="113.968" gradientUnits="userSpaceOnUse">
<stop stop-color="white"/>
<stop offset="1" stop-color="white" stop-opacity="0"/>
</linearGradient>
<radialGradient id="paint8_radial" cx="0" cy="0" r="1" gradientUnits="userSpaceOnUse" gradientTransform="translate(109.789 115.982) rotate(1.05124) scale(26.5732 14.7258)">
<stop stop-color="#E1AC8F"/>
<stop offset="0.7" stop-color="#E1AC8F" stop-opacity="0.3"/>
<stop offset="1" stop-color="#F0C7B1" stop-opacity="0"/>
</radialGradient>
<radialGradient id="paint9_radial" cx="0" cy="0" r="1" gradientUnits="userSpaceOnUse" gradientTransform="translate(102.738 151.179) rotate(-2.64681) scale(43.3134 38.2264)">
<stop offset="0.95" stop-opacity="0"/>
<stop offset="1" stop-opacity="0.2"/>
</radialGradient>
<radialGradient id="paint10_radial" cx="0" cy="0" r="1" gradientUnits="userSpaceOnUse" gradientTransform="translate(183.797 117.098) scale(19.8897 17.543)">
<stop stop-color="white"/>
<stop offset="0.544" stop-color="#FDFEFE"/>
<stop offset="0.74" stop-color="#F6F8F9"/>
<stop offset="0.879" stop-color="#EAEFF2"/>
<stop offset="0.992" stop-color="#D9E3E8"/>
<stop offset="1" stop-color="#D8E2E7"/>
</radialGradient>
<radialGradient id="paint11_radial" cx="0" cy="0" r="1" gradientUnits="userSpaceOnUse" gradientTransform="translate(182.206 116.474) rotate(-12.8359) scale(8.35824 7.4776)">
<stop stop-color="white"/>
<stop offset="1" stop-color="white" stop-opacity="0"/>
</radialGradient>
<radialGradient id="paint12_radial" cx="0" cy="0" r="1" gradientUnits="userSpaceOnUse" gradientTransform="translate(182.273 116.494) rotate(0.451619) scale(8.41207 7.41989)">
<stop stop-color="white"/>
<stop offset="1" stop-color="white" stop-opacity="0"/>
</radialGradient>
<linearGradient id="paint13_linear" x1="177.572" y1="121.713" x2="178.711" y2="120.174" gradientUnits="userSpaceOnUse">
<stop stop-color="white"/>
<stop offset="1" stop-color="white" stop-opacity="0"/>
</linearGradient>
<linearGradient id="paint14_linear" x1="184.026" y1="114.231" x2="183.114" y2="115.463" gradientUnits="userSpaceOnUse">
<stop stop-color="white"/>
<stop offset="1" stop-color="white" stop-opacity="0"/>
</linearGradient>
<linearGradient id="paint15_linear" x1="187.469" y1="111.13" x2="185.369" y2="113.968" gradientUnits="userSpaceOnUse">
<stop stop-color="white"/>
<stop offset="1" stop-color="white" stop-opacity="0"/>
</linearGradient>
<radialGradient id="paint16_radial" cx="0" cy="0" r="1" gradientUnits="userSpaceOnUse" gradientTransform="translate(181.174 115.982) rotate(178.949) scale(26.5732 14.7258)">
<stop stop-color="#E1AC8F"/>
<stop offset="0.7" stop-color="#E1AC8F" stop-opacity="0.3"/>
<stop offset="1" stop-color="#F0C7B1" stop-opacity="0"/>
</radialGradient>
<radialGradient id="paint17_radial" cx="0" cy="0" r="1" gradientUnits="userSpaceOnUse" gradientTransform="translate(188.134 151.18) rotate(-177.353) scale(43.3149 38.2276)">
<stop offset="0.95" stop-opacity="0"/>
<stop offset="1" stop-opacity="0.2"/>
</radialGradient>
<radialGradient id="paint18_radial" cx="0" cy="0" r="1" gradientUnits="userSpaceOnUse" gradientTransform="translate(145.72 153.644) scale(58.2483 51.376)">
<stop stop-color="#FFE4D6" stop-opacity="0.5"/>
<stop offset="0.9" stop-color="#F0C7B1" stop-opacity="0"/>
</radialGradient>
<radialGradient id="paint19_radial" cx="0" cy="0" r="1" gradientUnits="userSpaceOnUse" gradientTransform="translate(145.72 78.4614) scale(52.5655 46.3636)">
<stop stop-color="#FFE4D6" stop-opacity="0.5"/>
<stop offset="0.9" stop-color="#F0C7B1" stop-opacity="0"/>
</radialGradient>
</defs>
</svg>
